<svg version="1" xmlns="http://www.w3.org/2000/svg" width="1216" height="1216" viewBox="0 0 912.000000 912.000000"><path d="M405.5 30.8c-4 .3-17.8 3.3-19 4-.5.4-1.5.7-2.1.8-2 .3-13.4 6.3-18.1 9.5-5 3.4-18.3 16.5-18.3 17.9 0 .5-.6 1.5-1.3 2.2C345 66.9 334 85.8 334 87.1c0 .5-.4.9-.9.9s-1.1.8-1.4 1.7c-.3 1-1.9 4-3.6 6.8-1.6 2.7-3.6 6.1-4.4 7.5-3.1 5.6-6.3 11.2-14.7 25.5-4.8 8.2-10.4 18.1-12.6 21.8-2.1 3.7-5.1 8.9-6.7 11.5-1.5 2.6-3 5.4-3.4 6.2-.4.8-.9 1.7-1.2 2-.4.3-1.2 1.6-1.9 3-.6 1.4-1.6 3.2-2.2 4-.5.8-4.2 7.1-8.1 14-3.9 6.9-7.4 12.9-7.9 13.5-.4.5-2.1 3.5-3.7 6.5-1.7 3-7.1 12.6-12.2 21.2-5 8.6-9.1 16.2-9.1 16.7 0 .6-.4 1.1-.8 1.1-.5 0-1.7 1.9-2.8 4.1-1 2.3-2.3 4.7-2.9 5.3-.5.7-1.7 2.5-2.6 4.1-3.3 6.3-26.3 46-26.8 46.5-.3.3-1.9 3.1-3.6 6.2-1.6 3.2-3.3 5.8-3.7 5.8-.4 0-.8.7-.8 1.5s-1.6 3.9-3.5 6.9c-1.9 3-3.5 5.7-3.5 6 0 .2-2.2 4.1-5 8.6-2.7 4.5-5 8.3-5 8.5 0 .2-8.9 15.8-19.9 34.7-10.9 18.9-20.8 35.9-21.8 37.8-1.1 1.9-5.3 9.1-9.3 16-4 6.9-8.1 14-9.1 15.8-14.4 25-30.5 53.1-36 62.4-3.8 6.4-6.9 12.1-6.9 12.7 0 .6-.4 1.1-1 1.1-.5 0-1 .5-1 1 0 .6-1.1 2.7-2.3 4.8-12.5 19.7-17.1 33.4-17 50.7 0 9.9.8 14.9 3.8 24.3 5.4 17.3 16.1 31.6 31.3 41.9 3.5 2.4 6.4 4.3 6.6 4.3.3 0 5 2.7 10.6 6s10.3 6 10.5 6c.2 0 3.3 1.8 6.9 4 3.6 2.2 6.9 4 7.4 4 .4 0 1.3.5 2 1.2 1.4 1.4 11.4 7.2 15.4 9 1.6.7 2.8 1.6 2.8 2 0 .4.6.8 1.3.8.7 0 1.9.6 2.6 1.3.6.6 1.5 1.2 1.9 1.2.7.1 18 10 24.4 14.1 2.1 1.3 4 2.4 4.3 2.4.4 0 4.1 2.1 8.3 4.7 4.2 2.6 9.3 5.5 11.2 6.5 1.9 1.1 4.4 2.5 5.5 3.1 1.1.7 3.8 2.3 6 3.5 2.2 1.3 6.3 3.6 9 5.3 2.8 1.6 5.8 3.3 6.8 3.6.9.3 1.7.9 1.7 1.4 0 .5.3.8.7.7.5-.1 1.9.5 3.3 1.4 5.5 3.5 15.2 8.8 16.1 8.8.5 0 .9.4.9 1 0 .5.5 1 1 1 .6 0 4.4 2 8.4 4.5 4.1 2.5 7.9 4.5 8.5 4.5.6 0 1.1.4 1.1 1 0 .5.5 1 1.1 1 .7 0 3.5 1.4 6.3 3.2 4.5 2.7 9.7 5.7 16.1 9.2 1.1.6 2.7 1.6 3.5 2.2.8.7 4.2 2.6 7.4 4.3 3.3 1.7 6.4 3.5 7 4 .6.4 3.1 1.9 5.6 3.2 2.5 1.3 4.7 2.6 5 2.9.3.3 2.5 1.6 5 2.9 2.5 1.3 5.3 3.1 6.4 4 1 .9 1.9 1.4 2 1.2 0-.3 1.2.2 2.6 1.1 2.1 1.3 21.2 12.3 31 17.9 1.4.8 2.7 1.6 3 1.9.3.3 1.9 1.2 3.5 2 1.7.8 3.2 1.7 3.5 2 .7.7 6.7 3.9 10.8 5.9 1.7.8 3.2 1.9 3.2 2.3 0 .4.4.8.9.8s4.2 1.9 8.3 4.3c4 2.4 9.3 5.5 11.8 6.9 2.5 1.4 13.1 7.4 23.5 13.5 10.5 6 20.6 11.5 22.5 12.3 1.9.7 4 1.7 4.5 2.1 2.9 2 19.4 5 27.9 5 10.1-.1 12-.3 22.1-3.1 21.8-5.9 39-20.4 51.4-43.5 1.2-2.2 2.6-4.7 3.1-5.5.9-1.3 3.7-6.2 9.1-15.8 1.1-1.7 2.7-4.7 3.8-6.5 1-1.7 5.3-9.2 9.6-16.6 4.2-7.4 10.9-18.9 14.8-25.5 3.8-6.7 7.9-13.7 8.9-15.6 1.1-1.9 3-5.3 4.3-7.5 1.4-2.2 2.9-4.9 3.5-6 .6-1.1 1.8-3.4 2.8-5 1-1.7 3-5 4.4-7.5 1.4-2.5 4.9-8.6 7.8-13.5 2.9-5 6-10.4 7-12 .9-1.7 6.1-10.7 11.5-20 5.4-9.4 10.9-19 12.3-21.5 1.4-2.5 4.5-7.8 6.9-11.8 2.4-4.1 4.3-7.6 4.3-8 0-.3.6-1.3 1.4-2.1.8-.9 2.6-3.9 4.1-6.6 3.6-6.9 5.9-10.9 6.5-11.5.3-.3 1-1.4 1.6-2.5 2.7-5 6.3-11.3 8.3-14.5 1.1-1.9 2.4-4.2 2.8-5 .3-.8 1.7-3.2 3-5.3 1.3-2.1 3.2-5.3 4.2-7 9.9-17.5 12.7-22.2 13.3-22.5.5-.2.8-.8.8-1.4 0-.5 2.4-5.1 5.4-10.1 2.9-5.1 6.3-10.8 7.3-12.7 3.9-6.8 8.4-14.5 9.3-16 .5-.8 3.1-5.3 5.7-9.9 2.7-4.6 6-10.4 7.6-13 1.5-2.5 3-5.4 3.3-6.4.4-.9 1-1.7 1.5-1.7s.9-.9.9-2 .4-2 .8-2c.5 0 1.6-1.5 2.5-3.3.9-1.7 3.2-5.9 5.2-9.2 1.9-3.3 4.6-8.1 6-10.7 1.3-2.6 2.9-4.9 3.5-5.3.6-.4.8-1.1.5-1.6-.4-.5-.1-.9.4-.9.6 0 1.1-.4 1.1-.9 0-.4 2.9-5.9 6.5-12 3.6-6.2 6.5-11.6 6.5-12.2 0-.5.4-.9.9-.9s1.3-1 1.7-2.3c.4-1.2.9-2.4 1.3-2.7.3-.3 1.7-2.5 3-5 1.4-2.5 2.9-4.8 3.5-5.2.6-.4.8-.8.4-.8-.6 0 5-10.2 7-12.5.4-.6 1.4-2.5 2.1-4.3.7-1.7 1.7-3.2 2.2-3.2.5 0 .9-.5.9-1 0-.6 4.1-8.1 9.1-16.7 5.1-8.6 9.8-17.3 10.7-19.2 2.1-5.2 3-7.5 2.9-8.1 0-.3.4-1.4 1-2.5s1.4-3.6 1.7-5.5c.3-1.9.8-4.6 1.1-6 .8-3.5.8-21 0-24-.3-1.4-.9-4.1-1.2-6-.3-1.9-.9-3.9-1.4-4.4-.5-.6-.9-1.8-.9-2.8 0-2.2-4.9-12.4-9.2-19.2-3.7-5.6-13.4-15.8-18.8-19.6-3.7-2.7-18.9-12-19.5-12-.1 0-9.2-5.2-20-11.5-10.9-6.3-20.1-11.5-20.6-11.5-.4 0-.9-.3-1.1-.8-.1-.4-1.9-1.5-3.8-2.5-3.4-1.7-8.2-4.5-14.7-8.3-15.8-9.4-64-37-65-37.2-.7-.2-1.3-.8-1.3-1.3s-.9-.9-2-.9-2-.5-2-1c0-.6-1.1-1.5-2.3-1.9-1.3-.5-7.3-3.8-13.3-7.4-6-3.5-11.4-6.6-11.9-6.8-2.1-.8-16-9.4-16.6-10.2-.3-.5-.9-.8-1.3-.7-.7.1-13.7-7-14.6-7.9-.5-.6-6.2-3.8-12.5-7-1.6-.9-3.2-1.9-3.5-2.2-.3-.3-2.7-1.8-5.5-3.3-11.1-6.2-14.2-8-17.7-10.3-2.1-1.2-4.2-2.3-4.8-2.3-.5 0-1-.5-1-1 0-.6-.4-1-1-1-.5 0-8.1-4.1-16.7-9.1-8.7-5.1-21.1-12.3-27.7-16-6.5-3.8-12.2-6.9-12.7-6.9s-.9-.5-.9-1.1c0-.5-.4-.8-.9-.5-.5.3-1.4-.1-2.1-.9-.7-.8-1.9-1.5-2.6-1.5-.8 0-1.4-.5-1.4-1 0-.6-.5-1-1-1-.6 0-4-1.8-7.6-4-3.6-2.2-6.7-4-6.9-4-.2 0-4.9-2.7-10.4-6-5.6-3.3-10.4-6-10.7-6-.3 0-2.9-1.5-5.8-3.4-17.1-10.9-37-16.4-54.1-14.8zM423 72.2c2.5.6 5.9 1.9 7.5 2.8 11.4 6.4 15.1 8.5 15.5 9 .3.3 1.6 1.1 3 1.8s4.8 2.5 7.5 4.2c2.8 1.6 6.6 3.8 8.5 4.9 1.9 1 12.9 7.3 24.3 14 11.5 6.7 21.3 12.1 21.8 12.1s.9.4.9 1c0 .5.5 1 1.1 1 .6 0 5.2 2.5 10.3 5.5 5 3 9.7 5.5 10.3 5.5.6 0 1.3.4 1.5.8.2.5 6.5 4.4 14.1 8.8 7.6 4.3 15.4 8.9 17.5 10.1 2 1.2 4.4 2.5 5.2 3 .8.4 5.9 3.3 11.3 6.5s10.3 5.8 10.8 5.8.9.4.9 1c0 .5.5 1 1.1 1 .6 0 4.8 2.2 9.4 5 4.6 2.7 8.8 5 9.4 5 .6 0 1.1.4 1.1 1 0 .5.6 1 1.4 1 .7 0 1.9.7 2.6 1.5.7.9 1.5 1.3 1.8 1.1.3-.3 1.7.3 3.1 1.3 1.4 1 8 4.9 14.6 8.7 6.6 3.8 12.9 7.4 14 8.1 1.1.7 2.7 1.5 3.5 1.9.8.4 4.2 2.4 7.5 4.4 3.3 2 6.7 3.9 7.5 4.3.8.4 2.9 1.5 4.5 2.6 2.8 1.7 5.8 3.4 13.8 7.9 8.6 5 30.5 17.6 32.7 19 1.4.9 2.7 1.5 3 1.5.3 0 2.4 1.2 4.7 2.8 2.3 1.6 4.6 2.9 5.2 2.9.6 0 1.1.4 1.1 1 0 .5.5 1 1.1 1 .6 0 3.8 1.6 7.2 3.6 3.4 2 8.2 4.8 10.7 6.2 2.5 1.4 6.1 3.5 8 4.7 3.8 2.4 11.8 6.9 16.5 9.5 6.7 3.5 19.2 11.3 21.6 13.4 4.4 3.8 9.8 12.5 11.5 18.4 1.4 4.9 2 15.1 1.1 19.2-1.2 5.7-3.8 11.2-8.5 18.5-.6 1.1-1.6 2.9-2.2 4-.5 1.1-2.3 4.2-3.9 7-1.7 2.7-4.4 7.5-6.1 10.5-5.8 10.4-6.5 11.5-7.2 11.8-.5.2-.8.8-.8 1.3s-2 4.3-4.5 8.3c-2.5 4.1-4.5 7.9-4.5 8.5 0 .5-.6 1.6-1.3 2.3-.7.7-2.6 3.5-4.1 6.3-7 12.4-8.1 14.2-10.3 17.7-1.2 2.1-2.3 4-2.3 4.3 0 .3-1.2 2.4-2.7 4.8-1.5 2.3-2.8 4.4-2.8 4.7 0 .3-2.3 4.3-5.1 9s-9.3 15.9-14.5 25c-5.2 9.1-9.7 16.6-10.1 16.8-.5.2-.8.8-.8 1.2 0 .8-28.2 50.2-42.1 73.8-2.7 4.6-4.9 8.8-4.9 9.3s-.4.9-1 .9c-.5 0-1 .4-1 .9s-5 9.6-11.1 20.2c-6.2 10.7-12 20.7-12.9 22.4-1 1.6-8.4 14.5-16.5 28.5s-15.9 27.5-17.3 30c-1.3 2.5-2.8 4.9-3.2 5.5-.4.5-1.7 2.7-2.9 4.8-1.2 2-3 5.2-4 7.1-1.1 1.8-2.5 4.4-3.3 5.7-.7 1.3-1.5 2.6-1.8 2.9-.3.3-1.5 2.3-2.7 4.5-3.3 6.3-5.3 9.7-18 31.6-6.6 11.4-12.3 21.3-12.7 22-.3.8-1.5 2.7-2.5 4.4-2.7 4.4-19.9 34.1-23.4 40.5-1.7 3-3.3 5.7-3.6 6-.4.3-1.5 2.4-2.6 4.7-1.1 2.4-2.3 4.3-2.7 4.3-.5 0-.8.7-.8 1.5 0 2.2-11 12.7-16 15.3-5.6 2.8-7.8 3.3-16.5 3.9-4.9.3-8.8 0-12.5-1.1-5.3-1.6-25.2-12.2-25.8-13.8-.2-.4-.7-.8-1.2-.8s-4.8-2.3-9.7-5.1c-4.8-2.8-10.6-6.1-12.8-7.3-12.8-7.2-15.6-8.9-16.1-9.7-.3-.5-1-.7-1.5-.4-.5.4-.9.1-.9-.4 0-.6-.5-1.1-1-1.1-.6 0-2.9-1.2-5.3-2.7-2.3-1.4-6.7-4-9.7-5.6-3-1.6-6.2-3.6-7.1-4.3-.8-.8-1.9-1.4-2.3-1.4-1.2 0-20-11.2-20.8-12.4-.4-.6-.8-.8-.8-.4s-2.8-.9-6.2-3c-3.5-2.1-12.1-7.2-19.3-11.3-7.1-4.1-13.9-7.9-15-8.6-1.1-.7-2.7-1.5-3.5-1.9-.8-.4-4.6-2.6-8.5-4.9-3.8-2.3-12.4-7.3-19-11.1s-12.7-7.4-13.6-7.9c-.9-.6-4.3-2.5-7.5-4.2-6.4-3.6-11.9-6.7-20.4-11.8-3-1.8-7.5-4.4-10-5.7-2.5-1.4-8.5-4.9-13.5-7.8-4.9-2.9-11.5-6.6-14.5-8.3-3-1.6-6.2-3.6-7.1-4.3-.8-.8-1.8-1.4-2.2-1.4-.4 0-7.9-4.3-16.8-9.5S178.4 663 178 663c-.4 0-1.8-.8-3.1-1.8-1.3-1.1-4.9-3.2-7.9-4.9-9.9-5.4-15.4-8.6-19.2-11-2.1-1.2-4.2-2.3-4.8-2.3-.5 0-1-.5-1-1 0-.6-.4-1-1-1-.5 0-3.3-1.4-6.2-3.1-5.5-3.3-7.3-4.3-17-9.8-15.6-8.9-23.2-21.3-23-37.7.1-6.6 2.9-15.3 6.9-21.6 1.2-2.1 2.3-4.1 2.3-4.5 0-.3.6-1.4 1.4-2.2.7-.9 2.9-4.5 4.7-8.1 1.9-3.6 3.7-6.7 4-7 .3-.3 3-4.8 6-10s5.9-10.4 6.6-11.5c.7-1.1 1.5-2.7 1.9-3.5.4-.8 2.5-4.3 4.6-7.8 2.1-3.4 3.8-6.5 3.8-6.7 0-.3 1.2-2.4 2.7-4.8 1.5-2.3 2.8-4.4 2.8-4.7.1-.4 6.3-11.2 13.4-23 1.1-1.9 2.4-4.2 2.8-5 .6-1.4 2.9-5.4 15.3-26.5 2.6-4.4 5.8-10 7.2-12.5 9.2-16.3 12.3-21.5 13-21.8.4-.2.8-.7.8-1.2 0-.8 4.3-8.4 22-39 6.2-10.7 12.4-21.5 13.8-24 1.4-2.5 4.5-7.8 6.9-11.8 2.4-4.1 4.3-7.8 4.3-8.3 0-.5.4-.9.9-.9s1.1-.8 1.4-1.8c.6-1.8 6.3-12 7.8-13.8.5-.6.6-1.4.2-1.7-.3-.4-.2-.7.4-.7.6 0 2.2-2.1 3.6-4.8 1.3-2.6 3.4-6.3 4.5-8.2 1.1-1.9 3-5.3 4.2-7.5 1.2-2.2 2.5-4.2 2.9-4.5.3-.3 1.5-2.3 2.7-4.5 3.5-6.8 6.9-13 7.5-13.5.3-.3 1.6-2.5 3-5 2.4-4.2 11.7-20.4 35.5-61.5 5.4-9.4 10.3-18 10.8-19.2.6-1.3 1.4-2.3 1.9-2.3.4 0 .7-.6.7-1.3 0-.7 1.6-3.5 3.4-6.3 1.9-2.9 3.3-5.4 3-5.6-.2-.3.2-1.1 1.1-1.8.8-.7 1.5-1.6 1.5-2.1s1.6-3.3 3.5-6.3 3.5-5.8 3.5-6.1c0-.3 1.2-2.4 2.7-4.8 1.4-2.3 4-6.7 5.6-9.7 1.7-3 3.3-5.7 3.6-6 .4-.3 1.5-2.4 2.6-4.7 1.1-2.4 2.3-4.3 2.8-4.3.4 0 .7-.4.7-.9 0-.4 2.2-4.6 4.9-9.2 2.8-4.6 6-10.4 7.3-12.9 3.4-6.5 12.7-15.6 19-18.5 8.9-4.1 18.2-4.9 27.8-2.3z"/><path d="M439.8 264.5c-.2.2-3.2.6-6.8.9-3.6.3-7.2.8-8 1-.8.3-3.3.7-5.5 1.1-2.2.3-6.2 1.2-9 2-2.7.7-6.1 1.6-7.5 1.8-2.1.4-10 3.1-16 5.4-.8.4-1.7.7-2 .8-.3 0-2.7 1.1-5.4 2.3-2.7 1.2-5.2 2.2-5.7 2.2s-.9.4-.9.8c0 .5-.6.9-1.2.9-1.4 0-17.9 9.2-18.8 10.3-.3.4-1.6 1.3-3 2s-3.8 2.2-5.3 3.4c-6.5 4.9-15.4 12.2-18.1 14.8-1.7 1.5-3.3 2.8-3.8 2.8-.4 0-.8.4-.8.8s-2.6 3.5-5.7 6.8c-9.1 9.5-15.9 18.2-23 29.4-4.4 6.9-13.6 24.8-14.8 29-.4 1.4-1.1 2.9-1.5 3.5-.9 1.3-5.6 15.6-7 21.5-.6 2.5-1.3 5.4-1.5 6.5-.3 1.1-.7 3.3-1 5-.3 1.6-.7 4.1-1 5.5-1 5.5-1.5 10.1-2 18.5-.4 4.9-.9 9.3-1.1 9.7-.3.4 0 .8.7.8.8 0 .9.3 0 1.3-.6.8-.8 1.6-.5 2 .3.3.7 4.5.9 9.4.4 9.1.6 11.3 2.4 22.3 2 12.1 7.7 31.6 12.2 41.5 1.2 2.7 2.3 5.2 2.4 5.5.8 2.9 11.6 22.5 12.6 22.8.5.2.9.8.9 1.3 0 .6 3.1 5.2 6.8 10.2 7.9 10.7 24.7 28 34.7 35.9 7.2 5.7 21.9 15.8 22.9 15.8.4 0 2.4 1.1 4.6 2.5 2.2 1.4 4.6 2.5 5.5 2.5.8 0 1.5.4 1.5.8 0 .7 11.7 5.7 22.5 9.8 4.5 1.6 22.3 6.3 26.5 7 1.9.3 4.6.7 6 1 6.7 1.3 13.9 1.7 29.5 1.8 20 .1 29.6-.9 45.5-4.9 3.6-.9 7.3-1.8 8.3-2 6.8-1.5 27.3-9.9 35.2-14.2 2.2-1.2 5.6-3 7.5-4 1.9-.9 3.7-2 4-2.3.3-.3 3-2.1 6-4 20.4-12.7 47.5-41 58.4-61 1-1.9 2.1-3.7 2.5-4 1.1-.9 9.1-17.8 11.7-24.7 1.3-3.7 2.8-7.5 3.1-8.3.3-.8.7-1.7.8-2 .5-1.6 2.8-9.7 3.1-11 .2-.8.8-3.3 1.4-5.5 1-3.9 1.5-6.7 2.5-13.5.3-1.9.7-4.5.9-5.8.5-2.2 1.5-15.4 1.9-23.5.1-2 0-3.7-.3-3.7s-.5-2.8-.6-6.3c-.1-9-2.1-25.9-3.8-31.5-.3-1-.7-2.8-1-4.2-1.1-5.5-2.4-9.8-4.4-15.3-1.2-3.1-2.2-6-2.3-6.5 0-.4-.7-2.2-1.5-4.1-.8-1.8-1.4-3.5-1.4-3.8 0-.7-8.8-18.2-11.1-22-4.6-7.6-9.4-14.8-10.1-15.1-.5-.2-.8-.8-.8-1.3 0-.9-2.7-4.4-6.2-8.1-1-1-1.8-2-1.8-2.3 0-.2-1-1.5-2.2-2.8-1.3-1.2-4.9-5.1-8.1-8.5-3.2-3.4-6.1-6.2-6.4-6.2-.3 0-2-1.5-3.8-3.3-1.7-1.7-4.7-4.3-6.5-5.7-1.9-1.4-3.9-3.1-4.6-3.8-.7-.6-1.7-1.2-2.2-1.2-.6 0-1.2-.3-1.4-.8-.3-.7-7.2-5.6-10.8-7.7-1-.5-4.9-2.7-8.6-4.8-7.2-4.1-26.7-12.7-28.8-12.7-.7 0-1.6-.3-2-.8-.4-.4-1.2-.8-1.7-.8-.5-.1-1-.2-1.1-.4-.2-.1-1-.3-1.8-.5s-5-1.3-9.2-2.4c-4.2-1.2-9.4-2.3-11.5-2.7-2.1-.3-5.1-.8-6.8-1.1-1.6-.2-4.6-.7-6.5-1-4-.5-38.7-1.2-39.2-.8zm-29.1 27c10.9 5.1 23.3 13 23.3 14.7 0 1.4-4.6 16.2-6.1 19.3-1 2.3-6.2 18.9-6 19.3.1.1-.6 1.6-1.4 3.2-.8 1.6-1.5 3.2-1.4 3.5 0 .3-1.3 4.7-3 9.8-2.8 8.2-3.5 9.4-6.4 10.7-1.7.8-3.4 1.5-3.7 1.6-1.3.2-7.2 2.9-16.4 7.3-5.6 2.7-10.4 4.8-10.7 4.7-.3 0-1.2.4-2 1-1.2 1-4 2.7-13.4 7.9-7.9 4.3-13.6 7.8-14.1 8.6-.3.5-1.1.9-1.8.9-.6 0-9.7-5.1-20.1-11.3-10.5-6.2-19.8-11.6-20.7-12-2.1-.7-2.3-4.3-.6-8.4.6-1.5 1.2-3.3 1.3-3.9.2-.6 1-2.7 1.8-4.5.8-1.9 2.5-5.9 3.7-8.9 5.1-12.8 10-20.4 18-28 9.9-9.5 13.9-12.9 16.8-14.3 1.2-.5 2.2-1.4 2.2-1.8 0-.9 19.4-12.9 20.8-12.9.6 0 1.2-.4 1.4-.8.2-.5 5.7-3.2 12.3-6 8.3-3.6 12.8-5 14.5-4.6 1.4.3 6.6 2.5 11.7 4.9zm126.3 4.1c4.7 2.4 10.3 5.5 12.5 6.9 2.2 1.4 4.8 2.8 5.8 3.1.9.4 1.7 1 1.7 1.3 0 .4 2.1 2.2 4.8 3.9 2.6 1.7 6.7 4.8 9.2 6.9 5.9 5.1 20.9 20.1 24 24.2l6.3 8.1c2 2.6 3.7 5.1 3.7 5.4 0 .4.9 1.6 2 2.8 1.1 1.2 2 2.8 2 3.5 0 .7.5 1.3 1.1 1.3.5 0 .8.4.4.9-.3.5-.1 1.3.5 1.6.6.4 2.9 4.2 5.1 8.6l4 8-5.5-3.5c-7.5-4.8-18.7-10.6-27.1-14-4.4-1.8-8.3-4.2-10.4-6.5-4.5-4.9-15.7-17.3-21.7-24.2-8.6-9.7-18.8-21.2-21.2-23.8-7.2-7.9-10.7-12.3-10.6-13.6.1-.8.2-2.7.3-4.1.1-3.1 1.2-2.9 13.1 3.2zm-26 8.6c2 .4 5.6 4.1 21.3 22.2 1 1.2 3.9 4.3 6.4 7.1 5.2 5.7 7 7.8 17.3 19.5 4.1 4.6 8.3 9.3 9.4 10.5 4.2 4.7 4.6 5.8 3.3 10.2-.7 2.3-1.6 4.5-2 4.9-.4.4-.7 1.3-.7 2 0 1.2-8 22.2-13.1 34.2-1.2 2.9-2.7 5.1-3.3 5-.6-.1-3.8.2-7.1.6-3.3.4-8.5.9-11.5 1.2-6.2.5-15.3 1.4-19 1.9-1.4.1-5.9.6-10 1-7.1.6-9.9.9-18 1.9-14.5 1.8-16.7 1.7-18.3-.7-.9-1.2-3-3.8-4.7-5.7-1.8-1.9-6-6.6-9.3-10.4-3.4-3.8-7.2-8-8.5-9.3-1.3-1.3-2.1-2.3-1.9-2.3.3 0-3.7-4.4-8.8-9.7l-9.3-9.8 1.3-3.6c.8-2.1 1.1-4 .8-4.3-.4-.3 0-.6.7-.6s1.1-.3.7-.6c-.4-.5 2.3-9.1 5.3-16.7 0-.1.3-1.1.6-2.2s3.5-11 7.2-22l6.7-20 4.7-.6c2.6-.4 7.7-1 11.5-1.4 3.7-.3 9-.8 11.6-1.1 2.7-.3 8-.7 11.8-.8 3.8-.2 7.1-.5 7.4-.7.4-.5 15.4-.2 17.5.3zm-209 88c0 .4.5.8 1 .8.6 0 4 1.8 7.6 4 3.6 2.2 6.7 4 6.9 4 .2 0 3.2 1.8 6.6 4 3.5 2.2 7.5 4.6 8.9 5.2 7.6 3.6 7.6 3.7 7.9 15.5.1 5.9.3 12.1.5 13.8.2 1.6.7 6.8 1.1 11.5.4 4.7.9 9.4 1.1 10.5.2 1.1.6 3.8.9 6 .3 2.2 1.1 7.1 1.8 11l1.3 7-6 9.5c-3.3 5.2-6.4 9.8-6.9 10.1-.5.3-.8.9-.8 1.3.1.3-.6 1.6-1.4 2.9-.9 1.2-5.3 8.1-9.8 15.2-6.1 9.7-8.7 12.9-10 12.7-.9-.2-1.7-.8-1.7-1.3s-.5-.9-1-.9c-1.9 0-9.7-5.9-18.1-13.8-5.6-5.2-5.8-5.6-8.8-16.5-3.1-11.4-3.7-14.2-4.7-21.2-1.8-13.1-2.1-18.4-1.9-30.5.2-12.2.7-17.5 2-25 .3-1.4.7-4.1 1.1-6 .3-1.9.7-4 .8-4.5.3-2 5.9-12.1 9.9-18 7-10.5 6.9-10.4 9.4-9.2 1.3.6 2.3 1.4 2.3 1.9zm253.7 44.6c4.8 7.3 12.7 19.5 13.9 21.7.6 1.1 3.4 6 6.2 11 2.9 4.9 5.2 9.5 5.2 10.1 0 .7.4 1.4.8 1.6.4.1 1.5 1.9 2.4 3.8l1.7 3.5-5.8 11c-3.2 6-7.4 13.9-9.2 17.5-1.9 3.6-3.6 6.7-3.9 7-.3.3-1.5 2.5-2.8 5-1.3 2.5-3.7 7-5.3 10-3 5.4-11.5 21.3-13.4 25-.6 1.2-2.6 2.1-5.5 2.6-2.5.4-5.2.9-6 1-.8.2-3.3.6-5.5.9-2.2.3-5.1.7-6.5.9-10.1 1.8-44.2 3.8-45.7 2.7-.9-.6-15.3-25.3-16.2-27.6-.2-.5-.9-1.7-1.6-2.5-.7-.8-2.3-3.5-3.7-6-1.3-2.5-3.5-6.3-4.9-8.5-1.4-2.2-3.3-5.6-4.3-7.5-.9-1.9-3.7-6.8-6.1-10.8-2.5-4.1-4.5-7.8-4.5-8.2 0-.5 1.4-3.3 3.1-6.2 1.7-2.9 3.1-5.4 3-5.6-.1-.1 2-4.2 4.6-9 5.3-9.8 10-18.6 16.4-31.4 2.6-5.3 4.9-8.6 5.9-8.6.8 0 3.8-.3 6.5-.6 2.8-.3 7.5-.8 10.5-1.1 10-.9 15.5-1.5 18.5-1.9 1.7-.2 6.6-.7 11-1.1 4.4-.4 8.9-.9 10-1.1 1.1-.2 5.3-.6 9.4-.9 4.1-.3 7.5-.6 7.7-.8.2-.1 2.7-.3 5.6-.4 5.3-.2 5.3-.2 8.5 4.5zm78.9 40.4c-.4 3.4-.9 6.5-1.1 6.8-.2.4-.7 2.6-1 4.9-.8 6.3-4 18.5-7.4 27.6-4.4 11.9-5.5 14.9-6.1 15.5-.3.3-1.9 3.4-3.7 7-3.9 7.9-6.5 12.4-7.5 12.8-.5.2-.8.8-.8 1.3 0 1.5-6.9 10.9-14.5 19.8-8.6 10-29.8 29.2-30.9 28-.2-.2-.6-2.2-1-4.4-1.1-7.8-1.6-10.1-3.5-17l-2-7 2.2-4.5c5.1-10.1 9.2-17.5 10.2-18.2.5-.4.7-.8.3-.8-.4 0 .6-2.2 2.2-4.9 1.7-2.6 3-5.1 3-5.3 0-.3 2-4.2 4.5-8.8 2.5-4.5 6.5-11.8 8.9-16.3 10.2-19.3 11.4-21.2 14.2-22.7 1.6-.8 3.2-1.9 3.5-2.3.3-.5.9-.8 1.3-.8 1.9.3 26.7-14.2 27.4-16 .2-.5.8-.9 1.4-.9.7 0 .8 2.2.4 6.2zm-274.8 19.4c1.5.3 4.5 1 6.7 1.6 2.2.6 4.9 1.2 6 1.4 3.9.6 7.9 1.5 8.6 1.9.4.3 2.4.7 4.4 1.1 2.1.3 4.7.8 5.9 1 3.2.8 5.3 1.1 16.1 2.9 5.5 1 10.7 1.9 11.5 2 .8.2 2.5.4 3.7.4 2.3.1 4.1 2.4 9.8 12.6 2.7 4.9 16.6 29 19 33 .7 1.1 1.3 2.4 1.4 3 .1.5.8 1.7 1.6 2.5.7.8 2.2 3.3 3.4 5.5 1.2 2.2 3.2 5.8 4.6 8 1.3 2.2 2.4 4.5 2.5 5.1 0 1.3-13.9 20.7-15.2 21.2-.4.2-.8.9-.8 1.5 0 .7-1.4 2.6-3 4.4-1.7 1.8-3 3.7-3 4.2 0 1.1-3.5 3.3-4.1 2.7-.2-.2-2.9-.7-5.9-1.1-3-.4-5.8-.9-6.1-1.1-.4-.2-2.4-.6-4.5-1-2.2-.3-5-.7-6.4-1-1.4-.3-4.7-.9-7.5-1.4-2.7-.5-6.1-1.1-7.5-1.4-1.4-.3-3.8-.7-5.5-1-8.3-1.4-28.2-4.8-29.5-5.1-.8-.2-3.6-.7-6.2-1-3-.5-5.4-1.6-6.7-3.1-1.2-1.3-2.1-2.7-2.1-3 0-.2-1.1-1.7-2.5-3.2-3.4-3.6-17.5-24.7-17.5-26.1 0-.6-.4-1.1-1-1.1-.5 0-1-.6-1-1.4 0-.7-.7-1.9-1.5-2.6-.8-.7-1.3-1.6-1-2 .3-.5.2-1-.2-1.2-.5-.1-1.6-1.7-2.5-3.3l-1.7-3.1 7.2-11.5c4-6.3 9.1-14.3 11.5-17.7 2.3-3.4 3.9-6.2 3.5-6.2-.5 0-.3-.4.3-.8.5-.4 2.1-2.5 3.4-4.7 1.3-2.2 2.6-4.2 2.9-4.5 1-.9 3.1-4.5 3.7-6.2.4-1 1-1.5 1.5-1.2.5.3 2.2.8 3.7 1zm22.7 118.3c11.7 2.1 16.2 2.9 21 3.7 2.8.4 8.4 1.4 11.3 2 .8.1 4.6.8 8.5 1.4 13.5 2.3 12.7 2.1 25.6 7.7 5.6 2.5 10.9 4.6 11.7 4.7.7.1 1.6.5 1.9.8.8.7-25.1 0-27.6-.7-1-.4-3.8-.8-6.1-1-2.4-.2-5.4-.7-6.8-1-1.4-.3-3.6-.8-5-1.1-11.2-2.2-28-8.1-41-14.4-7.9-3.9-9.7-5.2-6.2-4.4.9.2 6.7 1.2 12.7 2.3z"/></svg>