<svg width="216" height="228" viewBox="0 0 216 228" fill="none" xmlns="http://www.w3.org/2000/svg">
<path d="M89.9391 69.5125C83.9844 71.9267 78.6413 75.4764 74.0596 80.0567C69.4765 84.6384 65.9308 89.9828 63.5152 95.936C61.1832 101.688 60 107.766 60 114C60 120.233 61.1832 126.311 63.5152 132.06C65.9308 138.015 69.4778 143.359 74.0596 147.939C78.6413 152.522 83.9831 156.069 89.9391 158.484C95.6908 160.818 101.767 161.997 108.002 161.997C114.237 161.997 120.312 160.814 126.064 158.484C132.017 156.069 137.363 152.522 141.943 147.939C146.526 143.359 150.073 138.017 152.487 132.06C154.819 126.311 156 120.233 156 114C156 107.766 154.818 101.688 152.487 95.936C150.073 89.9828 146.523 84.637 141.943 80.0567C137.363 75.4764 132.022 71.9267 126.064 69.5125C120.312 67.1819 114.237 66 108.002 66C101.767 66 95.6908 67.1819 89.9391 69.5125ZM71.9968 134.206C69.6848 132.755 67.5544 131.084 65.6681 129.115C62.787 121.008 62.2988 112.23 64.2077 103.899C65.1057 102.128 66.1271 100.427 67.2825 98.7985C67.6393 98.2958 67.9696 97.7718 68.3516 97.2837L79.1838 103.693C79.1838 103.778 79.1838 103.871 79.1838 103.965C79.156 109.791 79.7476 115.575 80.9255 121.274C80.9295 121.301 80.9335 121.316 80.9388 121.339L72.5381 134.511C72.355 134.419 72.1733 134.318 71.9968 134.206ZM104.204 156.474C106.073 157.428 107.995 158.233 109.971 158.888C101.58 159.253 93.1067 157.287 85.616 152.989L103.774 156.225C103.914 156.313 104.056 156.398 104.204 156.474ZM104.138 153.196L82.7096 149.377C80.2026 146.333 77.9475 143.112 76.0095 139.67C75.516 138.795 74.9656 137.944 74.5477 137.03L82.9405 123.872C83.1262 123.918 83.3331 123.967 83.5679 124.03C88.8182 125.434 94.1613 126.433 99.5416 127.216C99.856 127.259 100.119 127.298 100.343 127.322L110.403 144.716C108.657 147.17 106.892 149.611 105.088 152.025C104.788 152.427 104.47 152.813 104.138 153.196ZM139.789 145.786C138.083 147.494 136.272 149.032 134.377 150.404C134.062 147.892 133.52 145.43 132.754 143.025L143.488 123C146.445 121.654 149.297 120.127 151.945 118.234C152.291 117.989 152.579 117.714 152.802 117.414C152.024 127.762 147.687 137.89 139.789 145.786ZM139.313 119.817C139.712 120.578 140.106 121.347 140.501 122.127L130.133 141.467C130.074 141.481 130.017 141.494 129.957 141.502C124.352 142.549 118.703 143.106 113.006 143.132L102.659 125.242C104.269 122.252 105.865 119.25 107.448 116.247C108.522 114.21 109.578 112.159 110.632 110.109L132.046 107.91C134.669 111.757 137.153 115.686 139.313 119.817ZM134.968 96.8765C133.952 99.5599 132.865 102.216 131.783 104.876L110.923 107.019C110.674 106.69 110.415 106.366 110.143 106.057C107.68 103.267 105.2 100.495 102.725 97.7148C102.748 97.687 102.77 97.6657 102.793 97.6405C101.794 96.643 100.792 95.6455 99.7936 94.6453L105.601 77.161C106.002 77.0549 106.405 76.966 106.812 76.9222C109.969 76.6012 113.13 76.2378 116.295 76.0547C118.233 75.9459 120.182 75.8836 122.153 76.0229L136.522 92.2179C136.027 93.7805 135.544 95.347 134.968 96.8765ZM139.789 82.2109C143.752 86.1771 146.822 90.703 148.992 95.5381C146.307 93.6903 143.437 92.1701 140.419 90.9312C139.949 90.7375 139.468 90.5664 138.978 90.3979L124.835 74.4576C124.933 73.7692 124.985 73.0794 125.006 72.3843C130.387 74.5744 135.43 77.8534 139.789 82.2109ZM93.6055 71.5473C93.6612 71.5885 93.6877 71.6229 93.7196 71.6322C96.9523 72.7491 99.8931 74.394 102.665 76.3452L97.2401 92.6835C97.2123 92.6914 97.1857 92.6994 97.1592 92.7113C96.0489 93.1703 94.9174 93.5815 93.8244 94.0789C89.3209 96.1257 84.9302 98.3926 80.7942 101.111L70.088 94.7767C70.1039 94.4424 70.161 94.1028 70.2751 93.8004C70.994 91.8849 71.701 89.9589 72.5142 88.0819C73.1403 86.636 73.8539 85.2393 74.6326 83.8743C75.142 83.3119 75.6699 82.7548 76.2138 82.2109C81.2983 77.1278 87.3073 73.5185 93.705 71.3842C93.6718 71.4359 93.6373 71.4903 93.6055 71.5473Z" fill="white"/>
<rect x="91.5893" y="7.16987" width="134.802" height="168.839" rx="15" transform="rotate(30 91.5893 7.16987)" stroke="white" stroke-width="10"/>
</svg>
