<svg width="31" height="21" viewBox="0 0 31 21" fill="none" xmlns="http://www.w3.org/2000/svg">
<g clip-path="url(#clip0)">
<path d="M23.9141 2.49715L15.677 0.0259629C15.5616 -0.0086543 15.4387 -0.0086543 15.3233 0.0259629L7.086 2.49715C6.8258 2.57521 6.64758 2.81474 6.64758 3.08643V12.1474C6.64758 13.326 7.12472 14.5324 8.06566 15.7332C8.78429 16.6503 9.77855 17.5713 11.0207 18.4704C13.1075 19.981 15.1623 20.9076 15.2488 20.9463C15.3287 20.9821 15.4144 21 15.5002 21C15.5859 21 15.6716 20.9821 15.7515 20.9463C15.838 20.9076 17.8928 19.981 19.9795 18.4704C21.2217 17.5713 22.2159 16.6503 22.9346 15.7332C23.8755 14.5325 24.3526 13.326 24.3526 12.1474V3.08643C24.3526 2.81474 24.1744 2.57521 23.9141 2.49715Z" fill="#F2F4F0"/>
</g>
<defs>
<clipPath id="clip0">
<rect width="21" height="21" fill="white" transform="translate(5)"/>
</clipPath>
</defs>
</svg>
