<svg width="61" height="61" viewBox="0 0 61 61" fill="none" xmlns="http://www.w3.org/2000/svg">
<path d="M43.7864 39.9126C42.1063 39.1723 40.2019 38.3336 40.131 37.7474C39.8299 35.2588 40.9258 33.9304 42.4424 32.0919C44.4859 29.6149 47.029 26.5319 47.029 19.4568C47.029 13.8855 45.6793 9.15854 43.1258 5.78707C40.2587 2.00117 35.8928 0 30.5002 0C25.1076 0 20.7415 2.00117 17.8744 5.78707C15.3211 9.15854 13.9713 13.8855 13.9713 19.4568C13.9713 26.5321 16.5144 29.6149 18.5579 32.0919C20.0745 33.9304 21.1703 35.2589 20.8692 37.7474C20.7984 38.3334 18.894 39.1723 17.2139 39.9126C11.6494 42.3641 2.33618 46.4669 2.33618 60.1465C2.33618 60.6178 2.71836 61 3.18963 61H57.8104C58.2817 61 58.6639 60.6178 58.6639 60.1465C58.6641 46.4669 49.3509 42.3641 43.7864 39.9126Z" fill="#282828"/>
</svg>
